{
    "asset" : {
        "copyright" : "Marek Sieroci\u0144ski",
        "generator" : "Khronos glTF Blender I/O v1.6.16",
        "version" : "2.0"
    },
    "scene" : 0,
    "scenes" : [
        {
            "name" : "Scene",
            "nodes" : [
                0,
                1
            ]
        }
    ],
    "nodes" : [
        {
            "mesh" : 0,
            "name" : "Plane.001",
            "rotation" : [
                0,
                -0.8056545257568359,
                0,
                0.5923856496810913
            ],
            "scale" : [
                1.2846410274505615,
                1.2846410274505615,
                1.2846410274505615
            ],
            "translation" : [
                0.0017555952072143555,
                0.1598464846611023,
                -0.006154634058475494
            ]
        },
        {
            "mesh" : 1,
            "name" : "Cube",
            "scale" : [
                70.30795288085938,
                1,
                70.56000518798828
            ],
            "translation" : [
                0,
                -1.001281499862671,
                0
            ]
        }
    ],
    "materials" : [
        {
            "doubleSided" : true,
            "name" : "Material",
            "pbrMetallicRoughness" : {
                "metallicFactor" : 0,
                "roughnessFactor" : 0.7315270900726318
            }
        },
        {
            "doubleSided" : true,
            "name" : "Material.001",
            "pbrMetallicRoughness" : {
                "metallicFactor" : 0,
                "roughnessFactor" : 0.7118226289749146
            }
        }
    ],
    "meshes" : [
        {
            "name" : "Plane.001",
            "primitives" : [
                {
                    "attributes" : {
                        "POSITION" : 0,
                        "NORMAL" : 1
                    },
                    "indices" : 2,
                    "material" : 0
                }
            ]
        },
        {
            "name" : "Cube",
            "primitives" : [
                {
                    "attributes" : {
                        "POSITION" : 3,
                        "NORMAL" : 4,
                        "TEXCOORD_0" : 5
                    },
                    "indices" : 6,
                    "material" : 1
                }
            ]
        }
    ],
    "accessors" : [
        {
            "bufferView" : 0,
            "componentType" : 5126,
            "count" : 6709,
            "max" : [
                1.7534966468811035,
                4.666045188903809,
                2.4275505542755127
            ],
            "min" : [
                -1.9390720129013062,
                -0.8146299123764038,
                -1.8438398838043213
            ],
            "type" : "VEC3"
        },
        {
            "bufferView" : 1,
            "componentType" : 5126,
            "count" : 6709,
            "type" : "VEC3"
        },
        {
            "bufferView" : 2,
            "componentType" : 5123,
            "count" : 8790,
            "type" : "SCALAR"
        },
        {
            "bufferView" : 3,
            "componentType" : 5126,
            "count" : 24,
            "max" : [
                1,
                1,
                1
            ],
            "min" : [
                -1,
                -8.936614990234375,
                -1
            ],
            "type" : "VEC3"
        },
        {
            "bufferView" : 4,
            "componentType" : 5126,
            "count" : 24,
            "type" : "VEC3"
        },
        {
            "bufferView" : 5,
            "componentType" : 5126,
            "count" : 24,
            "type" : "VEC2"
        },
        {
            "bufferView" : 6,
            "componentType" : 5123,
            "count" : 36,
            "type" : "SCALAR"
        }
    ],
    "bufferViews" : [
        {
            "buffer" : 0,
            "byteLength" : 80508,
            "byteOffset" : 0
        },
        {
            "buffer" : 0,
            "byteLength" : 80508,
            "byteOffset" : 80508
        },
        {
            "buffer" : 0,
            "byteLength" : 17580,
            "byteOffset" : 161016
        },
        {
            "buffer" : 0,
            "byteLength" : 288,
            "byteOffset" : 178596
        },
        {
            "buffer" : 0,
            "byteLength" : 288,
            "byteOffset" : 178884
        },
        {
            "buffer" : 0,
            "byteLength" : 192,
            "byteOffset" : 179172
        },
        {
            "buffer" : 0,
            "byteLength" : 72,
            "byteOffset" : 179364
        }
    ],
    "buffers" : [
        {
            "byteLength" : 179436,
            "uri" : "data:application/octet-stream;base64,"
        }
    ]
}
